<svg id="Capa_1" enable-background="new 0 0 512 512" height="512" viewBox="0 0 512 512" width="512" xmlns="http://www.w3.org/2000/svg"><g><g><path d="m467 426h-422c-24.813 0-45-20.187-45-45v-250c0-24.813 20.187-45 45-45h422c24.813 0 45 20.187 45 45v250c0 24.813-20.187 45-45 45z" fill="#8bb9ff"/></g><path d="m467 86h-211v340h211c24.813 0 45-20.187 45-45v-250c0-24.813-20.187-45-45-45z" fill="#7d81e7"/><circle cx="366" cy="256" fill="#f4f4f6" r="100"/><path d="m466 256c0-55.14-44.859-100-100-100v200c55.141 0 100-44.86 100-100z" fill="#e2dff4"/><path d="m396 241h-15v-15c0-8.284-6.716-15-15-15s-15 6.716-15 15v15h-15c-8.284 0-15 6.716-15 15s6.716 15 15 15h15v15c0 8.284 6.716 15 15 15s15-6.716 15-15v-15h15c8.284 0 15-6.716 15-15s-6.716-15-15-15z" fill="#6b61b1"/><path d="m381 286v-15h15c8.284 0 15-6.716 15-15s-6.716-15-15-15h-15v-15c0-8.284-6.716-15-15-15v90c8.284 0 15-6.716 15-15z" fill="#38336b"/><g><path d="m201 351h-140c-8.284 0-15-6.716-15-15v-10c0-46.869 38.131-85 85-85s85 38.131 85 85v10c0 8.284-6.716 15-15 15z" fill="#ffe278"/><path d="m201 351c8.284 0 15-6.716 15-15v-10c0-46.869-38.131-85-85-85v110z" fill="#ffb454"/><path d="m131 271c-30.327 0-55-24.673-55-55s24.673-55 55-55 55 24.673 55 55-24.673 55-55 55z" fill="#ffddce"/><path d="m186 216c0-30.327-24.673-55-55-55v110c30.327 0 55-24.673 55-55z" fill="#ffbca7"/></g></g></svg>