<svg id="Capa_1" enable-background="new 0 0 512.02 512.02" height="512" viewBox="0 0 512.02 512.02" width="512" xmlns="http://www.w3.org/2000/svg"><g><path d="m49.43 148.54h413.14v275.33h-413.14z" fill="#393e9f"/><path d="m256 148.54h206.57v275.33h-206.57z" fill="#340d66"/><path d="m34.43 133.54v321.34h443.14v-321.34zm413.14 275.33h-383.14v-245.33h383.14z" fill="#5564bf"/><path d="m477.57 133.54v321.34h-221.57v-46.01h191.57v-245.33h-191.57v-30z" fill="#393e9f"/><path d="m512 438.87v36.57c0 20.2-16.37 36.57-26.75 36.57h-192.68l-36.57-10.45-36.57 10.45h-182.86c-20.2 0-36.57-16.37-36.57-36.57v-36.57h182.86l73.14 15.69 1.5.32 71.64-16.01z" fill="#13cffe"/><path d="m512 438.87v36.57c0 20.2-16.37 36.57-26.75 36.57h-192.68l-36.57-10.45v-47l1.5.32 71.64-16.01z" fill="#28abf9"/><path d="m329.14 438.87-36.57 73.14h-73.14l-36.57-73.14z" fill="#28abf9"/><path d="m329.14 438.87-36.57 73.14h-36.57v-73.14z" fill="#318def"/><path d="m512.02 149.75c0 41.34-33.52 74.86-74.87 74.86h-243.28c-14.37 0-28.74-5.48-39.71-16.44-21.93-21.93-21.93-57.49 0-79.42 13.65-13.65 32.58-18.8 50.22-15.46-1.44-27.39 14.85-53.71 41.92-63.76 15.28-5.68 31.33-5.18 45.45.23 10.32-28.99 38-49.75 70.53-49.75 41.35 0 74.87 33.52 74.87 74.87 41.35 0 74.87 33.52 74.87 74.87z" fill="#e6f3ff"/><path d="m512.02 149.75c0 41.34-33.52 74.86-74.87 74.86h-74.87v-224.6c41.35 0 74.87 33.52 74.87 74.87 41.35 0 74.87 33.52 74.87 74.87z" fill="#bbe4f2"/><path d="m414.07 151.89-21.21 21.21-15.58-15.57v166.48h-30v-166.48l-15.57 15.57-21.21-21.21 51.78-51.79z" fill="#fe4945"/><path d="m414.07 151.89-21.21 21.21-15.58-15.57v166.48h-15v-223.91z" fill="#fa185e"/><ellipse cx="362.28" cy="336.83" fill="#e6f3ff" rx="37.45" ry="37.45" transform="matrix(.526 -.851 .851 .526 -114.707 467.922)"/><path d="m399.73 336.83c0 20.68-16.76 37.45-37.45 37.45v-74.9c20.69 0 37.45 16.77 37.45 37.45z" fill="#bbe4f2"/></g></svg>