<svg xmlns="http://www.w3.org/2000/svg" xmlns:xlink="http://www.w3.org/1999/xlink" id="Capa_1" x="0" y="0" version="1.1" viewBox="0 0 197.972 197.972" xml:space="preserve" style="enable-background:new 0 0 197.972 197.972"><polygon style="fill:#fff" points="100.749 194.559 5.176 180.906 5.176 17.066 100.749 3.412"/><path style="fill:#602f75" d="M100.749,197.972c-0.16,0-0.321-0.012-0.483-0.034L4.693,184.285c-1.681-0.241-2.93-1.681-2.93-3.379	V17.066c0-1.698,1.248-3.139,2.93-3.379l95.573-13.653c0.986-0.137,1.971,0.154,2.72,0.8c0.748,0.649,1.176,1.589,1.176,2.579	v191.147c0,0.99-0.43,1.93-1.176,2.579C102.362,197.679,101.567,197.972,100.749,197.972z M8.589,177.945l88.747,12.677V7.348	L8.589,20.025L8.589,177.945L8.589,177.945z"/><rect style="fill:#fff" width="92.16" height="139.947" x="100.744" y="30.719"/><path style="fill:#602f75" d="M192.909,173.965h-92.16c-1.821,0-3.301-1.476-3.301-3.299V30.719c0-1.823,1.478-3.299,3.301-3.299	h92.16c1.821,0,3.301,1.476,3.301,3.299v139.947C196.21,172.488,194.732,173.965,192.909,173.965z M104.05,167.367h85.56V34.018	h-85.56L104.05,167.367L104.05,167.367z"/><rect style="fill:#eaeaea" width="30.72" height="133.12" x="104.157" y="34.132"/><path style="fill:#00e7ff" d="M32.58,113.363l11.474-16.754l-9.653-14.899c-0.91-1.446-1.594-2.686-2.046-3.726	c-0.454-1.036-0.683-2.034-0.683-2.99c0-0.98,0.44-1.86,1.314-2.642c0.874-0.782,1.94-1.172,3.2-1.172	c1.447,0,2.57,0.425,3.377,1.277c0.804,0.852,1.917,2.432,3.34,4.739l7.694,12.452l8.219-12.452c0.676-1.05,1.253-1.947,1.734-2.693	c0.476-0.748,0.937-1.365,1.381-1.855c0.444-0.488,0.94-0.857,1.487-1.103c0.546-0.246,1.183-0.367,1.906-0.367	c1.307,0,2.374,0.391,3.2,1.172c0.826,0.782,1.244,1.708,1.244,2.78c0,1.563-0.899,3.685-2.693,6.366l-10.11,15.111l10.88,16.754	c0.976,1.468,1.69,2.688,2.133,3.656c0.44,0.968,0.664,1.884,0.664,2.744c0,0.817-0.2,1.563-0.594,2.239	c-0.396,0.676-0.957,1.212-1.679,1.608c-0.722,0.396-1.539,0.596-2.451,0.596c-0.976,0-1.807-0.205-2.483-0.613	c-0.676-0.406-1.224-0.915-1.644-1.522c-0.42-0.604-1.2-1.783-2.343-3.531l-9.023-14.201l-9.583,14.621	c-0.748,1.166-1.277,1.981-1.594,2.449c-0.314,0.466-0.693,0.922-1.137,1.364c-0.444,0.444-0.966,0.794-1.574,1.05	c-0.608,0.256-1.316,0.386-2.133,0.386c-1.26,0-2.304-0.386-3.13-1.155c-0.829-0.77-1.244-1.888-1.244-3.359	C30.027,117.967,30.88,115.856,32.58,113.363z"/><rect style="fill:#ffe600" width="75.093" height="20.48" x="100.744" y="51.199"/><path style="fill:#602f75" d="M175.842,74.978h-75.093c-1.821,0-3.301-1.476-3.301-3.299v-20.48c0-1.823,1.478-3.299,3.301-3.299	h75.093c1.821,0,3.301,1.476,3.301,3.299v20.48C179.143,73.502,177.665,74.978,175.842,74.978z M104.05,68.38h68.494V54.498H104.05	L104.05,68.38L104.05,68.38z"/><rect style="fill:#fff" width="75.093" height="20.48" x="100.744" y="71.679"/><path style="fill:#602f75" d="M175.842,95.458h-75.093c-1.821,0-3.301-1.476-3.301-3.299v-20.48c0-1.823,1.478-3.299,3.301-3.299	h75.093c1.821,0,3.301,1.476,3.301,3.299v20.48C179.143,93.982,177.665,95.458,175.842,95.458z M104.05,88.86h68.494V74.978H104.05	L104.05,88.86L104.05,88.86z"/><rect style="fill:#ffe600" width="75.093" height="20.48" x="100.744" y="92.159"/><path style="fill:#602f75" d="M175.842,115.938h-75.093c-1.821,0-3.301-1.476-3.301-3.299v-20.48c0-1.823,1.478-3.299,3.301-3.299	h75.093c1.821,0,3.301,1.476,3.301,3.299v20.48C179.143,114.462,177.665,115.938,175.842,115.938z M104.05,109.34h68.494V95.458	H104.05L104.05,109.34L104.05,109.34z"/><rect style="fill:#fff" width="75.093" height="20.48" x="100.744" y="112.639"/><path style="fill:#602f75" d="M175.842,136.418h-75.093c-1.821,0-3.301-1.476-3.301-3.299v-20.48c0-1.823,1.478-3.299,3.301-3.299	h75.093c1.821,0,3.301,1.476,3.301,3.299v20.48C179.143,134.942,177.665,136.418,175.842,136.418z M104.05,129.82h68.494v-13.882	H104.05L104.05,129.82L104.05,129.82z"/><rect style="fill:#ffe600" width="75.093" height="20.48" x="100.744" y="133.119"/><path style="fill:#602f75" d="M175.842,156.898h-75.093c-1.821,0-3.301-1.476-3.301-3.299v-20.48c0-1.823,1.478-3.299,3.301-3.299	h75.093c1.821,0,3.301,1.476,3.301,3.299v20.48C179.143,155.422,177.665,156.898,175.842,156.898z M104.05,150.3h68.494v-13.882	H104.05L104.05,150.3L104.05,150.3z"/><path style="fill:#602f75" d="M151.949,156.898c-1.821,0-3.301-1.476-3.301-3.299v-102.4c0-1.823,1.478-3.299,3.301-3.299	s3.301,1.476,3.301,3.299v102.4C155.25,155.422,153.772,156.898,151.949,156.898z"/></svg>