<svg id="Capa_1" enable-background="new 0 0 512 512" height="512" viewBox="0 0 512 512" width="512" xmlns="http://www.w3.org/2000/svg"><g><circle cx="256" cy="256" fill="#dbedff" r="256"/><path d="m62.664 256c0-130.777 98.065-238.637 224.668-254.089-10.27-1.253-20.724-1.911-31.332-1.911-141.385 0-256 114.615-256 256s114.615 256 256 256c10.608 0 21.062-.658 31.332-1.911-126.603-15.452-224.668-123.312-224.668-254.089z" fill="#b5dcff"/><circle cx="256" cy="256" fill="#b5dcff" r="195.435"/><path d="m123.229 256c0-97.269 71.064-177.929 164.104-192.924-10.203-1.644-20.665-2.512-31.332-2.512-107.937.001-195.436 87.5-195.436 195.436s87.499 195.435 195.435 195.435c10.667 0 21.129-.867 31.332-2.512-93.039-14.994-164.103-95.653-164.103-192.923z" fill="#8bcaff"/><path d="m401.256 213.453c13.077-13.052 8.194-36.787-9.356-43.219-3.399-1.245-5.566-4.477-5.271-7.858 1.578-18.046-16.176-31.904-32.893-27.519-4.113 1.075-8.204-.93-9.736-4.771-6.973-17.483-31.328-22.07-44.023-7.695-2.108 2.388-5.529 3.208-8.51 2.037-16.202-6.353-35.143 5.064-35.811 23.508l-.209 2.018c24.27-3.097 43.781 9.728 52.206 28.029 3.315 7.201 8.332 13.811 14.91 19.646 15.012 13.316 25.556 31.347 29.254 53.837 16.273-7.618 34.575-4.76 47.103 10.711 12.457-11.432 11.692-27.979 2.326-38.064-2.83-3.049-2.826-7.83.01-10.66z" fill="#64d465"/><g><g><path d="m322.563 197.629c2.918 2.589 5.662 5.361 8.225 8.304.312-1.668.104-3.463-.689-5.153-7.36-15.637 3.028-35.621 21.059-37.361 3.378-.326 6.16-3.046 6.765-6.615 1.531-9.029 7.704-15.817 15.388-19.169-5.778-3.321-12.762-4.565-19.574-2.778-4.113 1.075-8.204-.93-9.736-4.771-6.973-17.483-31.328-22.07-44.023-7.695-2.108 2.388-5.529 3.208-8.51 2.037-16.202-6.353-35.143 5.064-35.811 23.508l-.209 2.018c24.27-3.097 43.781 9.728 52.206 28.029 3.314 7.201 8.33 13.811 14.909 19.646z" fill="#40c140"/></g></g><path d="m106.387 200.953c0-7.484 6.123-13.608 13.608-13.608h32.607v-38.805c0-7.484-6.123-13.608-13.608-13.608h-69.335c-7.484 0-13.608 6.124-13.608 13.608v69.335c0 7.484 6.123 13.608 13.608 13.608h36.728z" fill="#ce775f"/><path d="m85.036 217.876v-69.336c0-7.484 6.123-13.608 13.607-13.608h-28.984c-7.484 0-13.607 6.124-13.607 13.608v69.335c0 7.484 6.123 13.608 13.607 13.608h28.984c-7.484 0-13.607-6.123-13.607-13.607z" fill="#c0694e"/><path d="m352.041 249.655c2.309 14.02 1.519 27.725-2.826 42.049 19.807-1.792 35.144 10.074 40.402 25.808l.212.633.559-.366c11.122-7.275 17.762-19.536 17.762-32.798-.001-28.043-29.159-47.918-56.109-35.326z" fill="#f87c68"/><g><path d="m373.496 283.983c0-13.228 6.727-24.883 16.945-31.737-10.688-7.031-24.822-8.935-38.401-2.591 2.309 14.02 1.519 27.725-2.826 42.049 10.817-.979 20.295 2.122 27.532 7.695-2.084-4.716-3.25-9.928-3.25-15.416z" fill="#ec625e"/></g><path d="m349.541 290.626c-4.062 13.423-10.652 24.693-19.741 34.878 20.607 3.108 33.334 20.06 33.334 37.854 0 1.138-.055 2.294-.169 3.535l-.067.736.714-.192c17.077-4.58 29.004-20.138 29.004-37.833-.001-22.349-19.006-41.147-43.075-38.978z" fill="#ec625e"/><g><path d="m381.73 302.534c-7.845-8.204-19.287-13.071-32.189-11.908-4.061 13.423-10.652 24.692-19.741 34.878 8.942 1.348 16.396 5.306 21.974 10.805 1.546-16.722 13.866-30.314 29.956-33.775z" fill="#df4854"/></g><path d="m330.62 324.586c-8.073 9.057-16.173 13.463-22.499 27.205-4.145 9.003-11.122 16.967-20.748 22.515 5.276 17.469 21.067 28.225 37.618 28.225 21.601 0 39.174-17.573 39.174-39.174-.001-18.749-13.734-35.771-33.545-38.771z" fill="#f87c68"/><path d="m318.896 363.559c0-15.882 9.696-29.496 23.491-35.255-3.598-1.796-7.543-3.078-11.767-3.718-8.073 9.057-16.173 13.463-22.499 27.205-4.145 9.003-11.122 16.967-20.748 22.515 5.277 17.469 21.067 28.225 37.618 28.225 6.089 0 11.857-1.397 17.003-3.886-13.585-5.852-23.098-19.356-23.098-35.086z" fill="#ec625e"/><path d="m173.242 264.779c0-26.097 9.991-48.575 27.621-65.134-.15-7.356-6.203-14.36-13.593-14.36h-69.335c-7.484 0-13.608 6.123-13.608 13.607v69.335c0 7.484 6.123 13.608 13.608 13.608h56.912c-1.052-5.523-1.605-11.224-1.605-17.056z" fill="#ce775f"/><path d="m133.311 268.228v-69.335c0-7.484 6.123-13.607 13.607-13.607h-28.984c-7.484 0-13.607 6.123-13.607 13.607v69.335c0 7.484 6.123 13.608 13.607 13.608h28.984c-7.484 0-13.607-6.124-13.607-13.608z" fill="#c0694e"/><path d="m323.246 196.859c-6.113-5.422-11.241-11.884-14.658-19.306-7.934-17.235-25.356-29.2-45.573-29.2s-37.639 11.965-45.573 29.2c-3.417 7.422-8.545 13.884-14.658 19.306-18.748 16.63-30.572 40.888-30.572 67.921s11.823 51.291 30.572 67.921c6.113 5.422 11.241 11.884 14.658 19.306 7.934 17.235 25.356 29.2 45.573 29.2s37.639-11.965 45.573-29.2c3.417-7.422 8.545-13.884 14.658-19.306 18.749-16.629 30.572-40.888 30.572-67.921s-11.823-51.292-30.572-67.921z" fill="#ffe5a0"/><path d="m266.376 352.006c-3.417-7.422-8.545-13.884-14.658-19.306-18.749-16.629-30.572-40.888-30.572-67.921s11.823-51.291 30.572-67.921c6.113-5.422 11.241-11.884 14.658-19.306 4.447-9.66 11.876-17.663 21.106-22.833-7.237-4.054-15.582-6.366-24.467-6.366-20.217 0-37.64 11.965-45.573 29.2-3.417 7.422-8.545 13.884-14.658 19.306-18.749 16.63-30.572 40.888-30.572 67.921s11.823 51.291 30.572 67.921c6.113 5.422 11.241 11.884 14.658 19.306 7.934 17.235 25.356 29.2 45.573 29.2 8.885 0 17.229-2.312 24.467-6.366-9.23-5.171-16.66-13.174-21.106-22.835z" fill="#f2ce7e"/><circle cx="263.015" cy="264.779" fill="#fcc101" r="45.133"/><path d="m263.015 264.779c0-16.703 9.08-31.276 22.567-39.08-6.64-3.843-14.343-6.053-22.567-6.053-24.927 0-45.133 20.207-45.133 45.133s20.207 45.133 45.133 45.133c8.224 0 15.927-2.21 22.567-6.053-13.487-7.804-22.567-22.377-22.567-39.08z" fill="#f2ab08"/></g></svg>