<svg id="Capa_1" enable-background="new 0 0 512 512" height="512" viewBox="0 0 512 512" width="512" xmlns="http://www.w3.org/2000/svg"><g><g><g><g><g><path d="m330.35 149.999h-91.087l-3.541-9.988c-14.301-40.34-52.583-47.444-55.722-49.275v-90.735l17.984 3.651c65.043 13.202 115.567 63.588 128.716 128.363z" fill="#6aa9ff"/></g></g></g></g><path d="m90 164.999c0-59.278 59.637-74.005 60-74.263v-90.735l-17.984 3.651c-76.424 15.512-132.016 82.688-132.016 161.347 0 45.491 18.505 86.741 48.382 116.618l56.118-13.618 7.492-49.992c-13.581-13.58-21.992-32.33-21.992-53.008z" fill="#ff641a"/><path d="m330.35 179.999-3.65 17.98c-15.35 75.6-82.23 132.02-161.7 132.02-45.49 0-86.74-18.5-116.62-48.38l63.61-63.61c13.58 13.58 32.33 21.99 53.01 21.99 60.69 0 73.05-58.29 74.26-60z" fill="#ffe470"/><path d="m330.35 179.999-3.65 17.98c-15.35 75.6-82.23 132.02-161.7 132.02v-90c60.69 0 73.05-58.29 74.26-60z" fill="#ffb64c"/><path d="m391 241.999h90v255h-90z" fill="#ffb64c"/><path d="m271 391.999h90v105h-90z" fill="#6aa9ff"/><path d="m151 361.999h90v135h-90z" fill="#ffe470"/><path d="m31 421.999h90v75h-90z" fill="#ff641a"/><g><path d="m0 481.999h512v30h-512z" fill="#61729b"/></g><path d="m256 481.999h256v30h-256z" fill="#47568c"/></g></svg>