<svg xmlns="http://www.w3.org/2000/svg" data-name="Layer 1" viewBox="0 0 512 512"><rect width="152" height="141" x="97.5" y="67.489" fill="#ffed80" rx="15"/><circle cx="130.057" cy="97.126" r="7.5" fill="#ffe64e"/><circle cx="168.544" cy="104.626" r="7.5" fill="#ffe64e"/><circle cx="218.237" cy="104.626" r="7.5" fill="#ffe64e"/><circle cx="212.475" cy="159.404" r="7.5" fill="#ffe64e"/><circle cx="176.044" cy="151.904" r="7.5" fill="#ffe64e"/><circle cx="137.557" cy="165.671" r="7.5" fill="#ffe64e"/><path fill="#fff099" d="M308.5,208.93135v96a15.00974,15.00974,0,0,1-10.97,14.45,14.85071,14.85071,0,0,1-4.03.55h-122a14.99906,14.99906,0,0,1-15-15v-96a15.00547,15.00547,0,0,1,15-15h122A15.00543,15.00543,0,0,1,308.5,208.93135Z"/><circle cx="204.057" cy="223.57" r="7.5" fill="#ffe966"/><circle cx="235.044" cy="219.541" r="7.5" fill="#ffe966"/><circle cx="277.237" cy="231.07" r="7.5" fill="#ffed80"/><circle cx="271.475" cy="285.848" r="7.5" fill="#ffed80"/><circle cx="235.044" cy="278.348" r="7.5" fill="#ffed80"/><circle cx="201.092" cy="264.433" r="7.5" fill="#ffe966"/><path fill="#ffcd85" d="M488.72,307.39069a16.873,16.873,0,0,1-16.24,11.99H301.48a16.98389,16.98389,0,0,1-13.71-27.01l85.5-116.88989a16.99619,16.99619,0,0,1,27.42,0l85.5,116.88989A16.72456,16.72456,0,0,1,488.72,307.39069Z"/><path fill="#ffc166" d="M486.19,292.37056l-85.5-116.88965a16.97337,16.97337,0,0,0-21.18707-5.21142,16.82381,16.82381,0,0,1,6.18707,5.21142l85.5,116.88965a16.97955,16.97955,0,0,1-13.71,27.01026h15a16.97955,16.97955,0,0,0,13.71-27.01026Z"/><path fill="#ffc570" d="M488.72,307.39069l-.03.06006-82.21-21.8501a30.96714,30.96714,0,0,1-23.01-29.92993v-86.77l1.96-.3a16.86428,16.86428,0,0,1,15.26,6.88013l85.5,116.88989A16.72456,16.72456,0,0,1,488.72,307.39069Z"/><path fill="#ffb74e" d="M486.19,292.37056l-85.5-116.88965a16.86394,16.86394,0,0,0-15.26-6.88037l-1.96.3003v4.08886a17.18332,17.18332,0,0,1,2.22,2.49121l85.5,116.88965a16.73692,16.73692,0,0,1,3.25214,11.29346L488.69,307.45064l.03-.06006A16.72456,16.72456,0,0,0,486.19,292.37056Z"/><rect width="152" height="126" x="21.5" y="193.933" fill="#fff8cc" rx="15"/><circle cx="54.057" cy="223.57" r="7.5" fill="#ffed80"/><circle cx="92.544" cy="231.07" r="7.5" fill="#ffed80"/><circle cx="142.237" cy="231.07" r="7.5" fill="#ffed80"/><circle cx="136.475" cy="285.848" r="7.5" fill="#ffed80"/><circle cx="100.044" cy="278.348" r="7.5" fill="#ffed80"/><circle cx="61.557" cy="292.115" r="7.5" fill="#ffed80"/><path fill="#ffed80" d="M308.5,208.93135v96a15.00974,15.00974,0,0,1-10.97,14.45H214.76a16.98394,16.98394,0,0,1-13.71-27.01l72-98.43994H293.5A15.00543,15.00543,0,0,1,308.5,208.93135Z"/><path fill="#ffc97a" d="M416.98,307.44074v.01a16.86653,16.86653,0,0,1-16.21,11.92993H229.76a16.98391,16.98391,0,0,1-13.71-27.01l85.5-116.88989a16.727,16.727,0,0,1,10.22-6.59009,16.94513,16.94513,0,0,1,17.21,6.59009L414.48,292.37067A16.68733,16.68733,0,0,1,416.98,307.44074Z"/><path fill="#ffc166" d="M414.48,292.37056,328.98,175.48091a17.04334,17.04334,0,0,0-21.22046-5.21582,16.887,16.887,0,0,1,6.22046,5.21582L399.48,292.37056a16.68771,16.68771,0,0,1,2.5,15.07031v.00977a16.86674,16.86674,0,0,1-16.21,11.93018h15a16.86674,16.86674,0,0,0,16.21-11.93018v-.00977A16.68771,16.68771,0,0,0,414.48,292.37056Z"/><path fill="#ffc166" d="M416.98,307.44074v.01l-82.22-21.8501a30.96714,30.96714,0,0,1-23.01-29.92993v-86.77l.02-.01a16.94513,16.94513,0,0,1,17.21,6.59009L414.48,292.37067A16.68733,16.68733,0,0,1,416.98,307.44074Z"/><path fill="#ffb74e" d="M414.48,292.37056,328.98,175.48091a16.94485,16.94485,0,0,0-17.21-6.59033l-.02.01026v4.09692a17.212,17.212,0,0,1,2.23,2.48315L399.48,292.37056a16.6878,16.6878,0,0,1,3.243,11.29151l14.257,3.78857v-.00977A16.68771,16.68771,0,0,0,414.48,292.37056Z"/><path fill="#676e87" d="M125.05464,403.38806H386.94536a0,0,0,0,1,0,0V415.5a30,30,0,0,1-30,30H155.05464a30,30,0,0,1-30-30V403.38806A0,0,0,0,1,125.05464,403.38806Z"/><path fill="#595f74" d="M341.94537,403.38814V415.5a30,30,0,0,1-30,30h45a30,30,0,0,0,30-30V403.38814Z"/><path fill="#4a4f60" d="M504.5,319.39131l-16.11,30.06006-20.41,38.09986a29.9932,29.9932,0,0,1-26.44,15.84008H70.46a29.9932,29.9932,0,0,1-26.44-15.84008L23.57,349.39131l-16.07-30Z"/><path fill="#3b3f4d" d="M459.5,319.39131l-16.11,30.06006-20.41,38.09986a29.9932,29.9932,0,0,1-26.44,15.84008h45a29.9932,29.9932,0,0,0,26.44-15.84008l20.41-38.09986,16.11-30.06006Z"/><polygon fill="#676e87" points="504.5 319.391 488.39 349.451 487.35 349.391 23.57 349.391 7.5 319.391 504.5 319.391"/><polygon fill="#595f74" points="459.5 319.391 443.422 349.391 487.35 349.391 488.39 349.451 504.5 319.391 459.5 319.391"/></svg>